<?xml version="1.0" standalone="no"?>
<!DOCTYPE svg PUBLIC "-//W3C//DTD SVG 1.1//EN" "http://www.w3.org/Graphics/SVG/1.1/DTD/svg11.dtd">
<svg xmlns="http://www.w3.org/2000/svg" xmlns:xlink="http://www.w3.org/1999/xlink" width="254.25" zoomAndPan="magnify" viewBox="0 0 254.25 63.749997" height="63.749996185302734" preserveAspectRatio="xMidYMid meet" version="1.2"><defs><clipPath id="2cebfbfc8b"><path d="M 0.125 0 L 62 0 L 62 62.753906 L 0.125 62.753906 Z M 0.125 0 "/></clipPath></defs><g id="4de86e5514"><g clip-rule="nonzero" clip-path="url(#2cebfbfc8b)"><path style=" stroke:none;fill-rule:nonzero;fill:#ffffff;fill-opacity:1;" d="M 57.824219 15.945312 L 45.777344 15.945312 C 45.703125 15.945312 45.636719 15.960938 45.566406 15.964844 L 39.257812 9.65625 L 39.257812 2.734375 C 39.257812 1.257812 38.058594 0.0585938 36.582031 0.0585938 L 28.550781 0.0585938 C 27.074219 0.0585938 25.875 1.257812 25.875 2.734375 L 25.875 10.765625 C 25.875 12.242188 27.074219 13.441406 28.550781 13.441406 L 35.472656 13.441406 L 41.78125 19.75 C 41.78125 19.820312 41.761719 19.886719 41.761719 19.960938 L 41.761719 32.007812 C 41.761719 32.078125 41.777344 32.140625 41.78125 32.214844 L 37.777344 36.222656 C 37.335938 36.105469 36.882812 36.023438 36.40625 36.023438 L 20.347656 36.023438 C 19.871094 36.023438 19.414062 36.105469 18.976562 36.222656 L 13.507812 30.753906 L 13.507812 23.832031 C 13.507812 22.351562 12.308594 21.152344 10.832031 21.152344 L 2.800781 21.152344 C 1.324219 21.152344 0.125 22.351562 0.125 23.832031 L 0.125 31.863281 C 0.125 33.339844 1.324219 34.539062 2.800781 34.539062 L 9.722656 34.539062 L 15.195312 40.011719 C 15.074219 40.449219 14.996094 40.902344 14.996094 41.378906 L 14.996094 57.4375 C 14.996094 60.398438 17.390625 62.792969 20.347656 62.792969 L 36.410156 62.792969 C 39.367188 62.792969 41.765625 60.398438 41.765625 57.4375 L 41.765625 41.378906 C 41.765625 40.902344 41.679688 40.445312 41.566406 40.007812 L 45.570312 36.003906 C 45.644531 36.003906 45.710938 36.023438 45.78125 36.023438 L 57.824219 36.023438 C 60.042969 36.023438 61.839844 34.226562 61.839844 32.007812 L 61.839844 19.960938 C 61.839844 17.746094 60.042969 15.949219 57.824219 15.949219 Z M 57.824219 15.945312 "/></g><g style="fill:#d3185b;fill-opacity:1;"><g transform="translate(78.222783, 38.678189)"><path style="stroke:none" d="M 15.546875 -0.921875 C 15.546875 -0.722656 15.488281 -0.570312 15.375 -0.46875 C 15.269531 -0.375 15.109375 -0.296875 14.890625 -0.234375 C 14.578125 -0.140625 14.019531 -0.0351562 13.21875 0.078125 C 12.414062 0.203125 11.488281 0.265625 10.4375 0.265625 C 9.300781 0.265625 8.203125 0.101562 7.140625 -0.21875 C 6.085938 -0.550781 5.140625 -1.085938 4.296875 -1.828125 C 3.460938 -2.566406 2.800781 -3.539062 2.3125 -4.75 C 1.820312 -5.96875 1.578125 -7.460938 1.578125 -9.234375 L 1.578125 -13.015625 C 1.578125 -14.785156 1.820312 -16.273438 2.3125 -17.484375 C 2.800781 -18.703125 3.460938 -19.675781 4.296875 -20.40625 C 5.140625 -21.132812 6.085938 -21.660156 7.140625 -21.984375 C 8.203125 -22.316406 9.300781 -22.484375 10.4375 -22.484375 C 11.488281 -22.484375 12.414062 -22.421875 13.21875 -22.296875 C 14.019531 -22.179688 14.578125 -22.078125 14.890625 -21.984375 C 15.109375 -21.921875 15.269531 -21.847656 15.375 -21.765625 C 15.488281 -21.691406 15.546875 -21.546875 15.546875 -21.328125 L 15.546875 -18.421875 C 15.546875 -18.023438 15.359375 -17.828125 14.984375 -17.828125 C 14.960938 -17.828125 14.945312 -17.828125 14.9375 -17.828125 C 14.925781 -17.828125 14.910156 -17.828125 14.890625 -17.828125 C 14.335938 -17.867188 13.664062 -17.914062 12.875 -17.96875 C 12.082031 -18.03125 11.28125 -18.0625 10.46875 -18.0625 C 9.789062 -18.0625 9.164062 -17.914062 8.59375 -17.625 C 8.03125 -17.34375 7.582031 -16.835938 7.25 -16.109375 C 6.925781 -15.378906 6.765625 -14.347656 6.765625 -13.015625 L 6.765625 -9.234375 C 6.765625 -7.921875 6.925781 -6.894531 7.25 -6.15625 C 7.582031 -5.414062 8.03125 -4.898438 8.59375 -4.609375 C 9.164062 -4.328125 9.789062 -4.1875 10.46875 -4.1875 C 11.28125 -4.1875 12.082031 -4.210938 12.875 -4.265625 C 13.664062 -4.328125 14.335938 -4.378906 14.890625 -4.421875 C 14.910156 -4.421875 14.925781 -4.421875 14.9375 -4.421875 C 14.945312 -4.421875 14.960938 -4.421875 14.984375 -4.421875 C 15.359375 -4.421875 15.546875 -4.222656 15.546875 -3.828125 Z M 15.546875 -0.921875 "/></g></g><g style="fill:#d3185b;fill-opacity:1;"><g transform="translate(94.993618, 38.678189)"><path style="stroke:none" d="M 18.71875 -0.59375 C 18.71875 -0.4375 18.65625 -0.296875 18.53125 -0.171875 C 18.414062 -0.0546875 18.28125 0 18.125 0 L 14.171875 0 C 14.015625 0 13.882812 -0.0546875 13.78125 -0.171875 C 13.6875 -0.296875 13.640625 -0.4375 13.640625 -0.59375 L 13.640625 -7.859375 L 7.140625 -7.859375 L 7.140625 -0.59375 C 7.140625 -0.4375 7.082031 -0.296875 6.96875 -0.171875 C 6.863281 -0.0546875 6.734375 0 6.578125 0 L 2.625 0 C 2.46875 0 2.328125 -0.0546875 2.203125 -0.171875 C 2.085938 -0.296875 2.03125 -0.4375 2.03125 -0.59375 L 2.03125 -15.84375 C 2.03125 -17.207031 2.21875 -18.316406 2.59375 -19.171875 C 2.976562 -20.023438 3.503906 -20.6875 4.171875 -21.15625 C 4.835938 -21.625 5.609375 -21.953125 6.484375 -22.140625 C 7.367188 -22.335938 8.304688 -22.4375 9.296875 -22.4375 L 11.484375 -22.4375 C 12.484375 -22.4375 13.421875 -22.335938 14.296875 -22.140625 C 15.171875 -21.953125 15.9375 -21.625 16.59375 -21.15625 C 17.25 -20.6875 17.765625 -20.023438 18.140625 -19.171875 C 18.523438 -18.316406 18.71875 -17.207031 18.71875 -15.84375 Z M 13.640625 -12.078125 L 13.640625 -15.84375 C 13.640625 -16.664062 13.488281 -17.226562 13.1875 -17.53125 C 12.882812 -17.84375 12.316406 -18 11.484375 -18 L 9.296875 -18 C 8.484375 -18 7.921875 -17.84375 7.609375 -17.53125 C 7.296875 -17.226562 7.140625 -16.664062 7.140625 -15.84375 L 7.140625 -12.078125 Z M 13.640625 -12.078125 "/></g></g><g style="fill:#d3185b;fill-opacity:1;"><g transform="translate(115.740423, 38.678189)"><path style="stroke:none" d="M 16.328125 -6.28125 C 16.328125 -5.476562 16.179688 -4.691406 15.890625 -3.921875 C 15.609375 -3.160156 15.148438 -2.460938 14.515625 -1.828125 C 13.890625 -1.191406 13.050781 -0.679688 12 -0.296875 C 10.957031 0.078125 9.679688 0.265625 8.171875 0.265625 C 6.992188 0.265625 5.945312 0.203125 5.03125 0.078125 C 4.113281 -0.0351562 3.273438 -0.191406 2.515625 -0.390625 C 2.367188 -0.429688 2.226562 -0.5 2.09375 -0.59375 C 1.96875 -0.695312 1.90625 -0.828125 1.90625 -0.984375 L 1.90625 -3.921875 C 1.90625 -4.296875 2.085938 -4.484375 2.453125 -4.484375 C 2.472656 -4.484375 2.488281 -4.484375 2.5 -4.484375 C 2.507812 -4.484375 2.523438 -4.484375 2.546875 -4.484375 C 2.835938 -4.460938 3.242188 -4.425781 3.765625 -4.375 C 4.285156 -4.332031 4.832031 -4.296875 5.40625 -4.265625 C 5.988281 -4.234375 6.53125 -4.203125 7.03125 -4.171875 C 7.53125 -4.140625 7.925781 -4.125 8.21875 -4.125 C 9.257812 -4.125 9.960938 -4.289062 10.328125 -4.625 C 10.703125 -4.96875 10.890625 -5.5 10.890625 -6.21875 C 10.890625 -6.65625 10.753906 -7.03125 10.484375 -7.34375 C 10.210938 -7.65625 9.6875 -8.039062 8.90625 -8.5 L 4.78125 -10.953125 C 3.382812 -11.765625 2.445312 -12.644531 1.96875 -13.59375 C 1.488281 -14.539062 1.25 -15.5625 1.25 -16.65625 C 1.25 -17.75 1.484375 -18.734375 1.953125 -19.609375 C 2.421875 -20.492188 3.210938 -21.191406 4.328125 -21.703125 C 5.453125 -22.222656 6.976562 -22.484375 8.90625 -22.484375 C 9.644531 -22.484375 10.429688 -22.445312 11.265625 -22.375 C 12.109375 -22.3125 12.890625 -22.226562 13.609375 -22.125 C 14.328125 -22.03125 14.875 -21.929688 15.25 -21.828125 C 15.375 -21.804688 15.476562 -21.75 15.5625 -21.65625 C 15.65625 -21.570312 15.703125 -21.453125 15.703125 -21.296875 L 15.703125 -18.265625 C 15.703125 -18.128906 15.664062 -18.007812 15.59375 -17.90625 C 15.519531 -17.8125 15.382812 -17.765625 15.1875 -17.765625 C 15.1875 -17.765625 15.179688 -17.765625 15.171875 -17.765625 C 15.160156 -17.765625 15.144531 -17.765625 15.125 -17.765625 C 14.925781 -17.785156 14.578125 -17.8125 14.078125 -17.84375 C 13.585938 -17.875 13.03125 -17.90625 12.40625 -17.9375 C 11.789062 -17.976562 11.160156 -18.015625 10.515625 -18.046875 C 9.878906 -18.078125 9.304688 -18.09375 8.796875 -18.09375 C 7.929688 -18.09375 7.320312 -17.960938 6.96875 -17.703125 C 6.625 -17.441406 6.453125 -17.046875 6.453125 -16.515625 C 6.453125 -16.085938 6.585938 -15.738281 6.859375 -15.46875 C 7.128906 -15.207031 7.664062 -14.859375 8.46875 -14.421875 L 12.296875 -12.34375 C 13.847656 -11.507812 14.90625 -10.59375 15.46875 -9.59375 C 16.039062 -8.601562 16.328125 -7.5 16.328125 -6.28125 Z M 16.328125 -6.28125 "/></g></g><g style="fill:#d3185b;fill-opacity:1;"><g transform="translate(133.318415, 38.678189)"><path style="stroke:none" d="M 15.671875 -0.75 C 15.671875 -0.382812 15.472656 -0.175781 15.078125 -0.125 C 14.554688 -0.0390625 13.859375 0.0390625 12.984375 0.125 C 12.117188 0.21875 10.878906 0.265625 9.265625 0.265625 C 8.304688 0.265625 7.390625 0.179688 6.515625 0.015625 C 5.640625 -0.148438 4.863281 -0.457031 4.1875 -0.90625 C 3.507812 -1.351562 2.972656 -2 2.578125 -2.84375 C 2.191406 -3.695312 2 -4.800781 2 -6.15625 L 2 -16.09375 C 2 -17.445312 2.191406 -18.546875 2.578125 -19.390625 C 2.972656 -20.242188 3.515625 -20.894531 4.203125 -21.34375 C 4.890625 -21.789062 5.671875 -22.09375 6.546875 -22.25 C 7.421875 -22.40625 8.335938 -22.484375 9.296875 -22.484375 C 10.910156 -22.484375 12.144531 -22.4375 13 -22.34375 C 13.863281 -22.257812 14.554688 -22.175781 15.078125 -22.09375 C 15.472656 -22.039062 15.671875 -21.84375 15.671875 -21.5 L 15.671875 -18.71875 C 15.671875 -18.5625 15.609375 -18.421875 15.484375 -18.296875 C 15.367188 -18.179688 15.234375 -18.125 15.078125 -18.125 L 9 -18.125 C 8.300781 -18.125 7.804688 -17.976562 7.515625 -17.6875 C 7.234375 -17.394531 7.09375 -16.863281 7.09375 -16.09375 L 7.09375 -13.375 L 14.828125 -13.375 C 14.992188 -13.375 15.132812 -13.3125 15.25 -13.1875 C 15.375 -13.070312 15.4375 -12.929688 15.4375 -12.765625 L 15.4375 -9.921875 C 15.4375 -9.765625 15.375 -9.625 15.25 -9.5 C 15.132812 -9.382812 14.992188 -9.328125 14.828125 -9.328125 L 7.09375 -9.328125 L 7.09375 -6.15625 C 7.09375 -5.382812 7.234375 -4.851562 7.515625 -4.5625 C 7.804688 -4.269531 8.300781 -4.125 9 -4.125 L 15.078125 -4.125 C 15.234375 -4.125 15.367188 -4.0625 15.484375 -3.9375 C 15.609375 -3.820312 15.671875 -3.6875 15.671875 -3.53125 Z M 15.671875 -0.75 "/></g></g><g style="fill:#10404b;fill-opacity:1;"><g transform="translate(150.665251, 38.678189)"><path style="stroke:none" d="M 16.328125 -6.28125 C 16.328125 -5.476562 16.179688 -4.691406 15.890625 -3.921875 C 15.609375 -3.160156 15.148438 -2.460938 14.515625 -1.828125 C 13.890625 -1.191406 13.050781 -0.679688 12 -0.296875 C 10.957031 0.078125 9.679688 0.265625 8.171875 0.265625 C 6.992188 0.265625 5.945312 0.203125 5.03125 0.078125 C 4.113281 -0.0351562 3.273438 -0.191406 2.515625 -0.390625 C 2.367188 -0.429688 2.226562 -0.5 2.09375 -0.59375 C 1.96875 -0.695312 1.90625 -0.828125 1.90625 -0.984375 L 1.90625 -3.921875 C 1.90625 -4.296875 2.085938 -4.484375 2.453125 -4.484375 C 2.472656 -4.484375 2.488281 -4.484375 2.5 -4.484375 C 2.507812 -4.484375 2.523438 -4.484375 2.546875 -4.484375 C 2.835938 -4.460938 3.242188 -4.425781 3.765625 -4.375 C 4.285156 -4.332031 4.832031 -4.296875 5.40625 -4.265625 C 5.988281 -4.234375 6.53125 -4.203125 7.03125 -4.171875 C 7.53125 -4.140625 7.925781 -4.125 8.21875 -4.125 C 9.257812 -4.125 9.960938 -4.289062 10.328125 -4.625 C 10.703125 -4.96875 10.890625 -5.5 10.890625 -6.21875 C 10.890625 -6.65625 10.753906 -7.03125 10.484375 -7.34375 C 10.210938 -7.65625 9.6875 -8.039062 8.90625 -8.5 L 4.78125 -10.953125 C 3.382812 -11.765625 2.445312 -12.644531 1.96875 -13.59375 C 1.488281 -14.539062 1.25 -15.5625 1.25 -16.65625 C 1.25 -17.75 1.484375 -18.734375 1.953125 -19.609375 C 2.421875 -20.492188 3.210938 -21.191406 4.328125 -21.703125 C 5.453125 -22.222656 6.976562 -22.484375 8.90625 -22.484375 C 9.644531 -22.484375 10.429688 -22.445312 11.265625 -22.375 C 12.109375 -22.3125 12.890625 -22.226562 13.609375 -22.125 C 14.328125 -22.03125 14.875 -21.929688 15.25 -21.828125 C 15.375 -21.804688 15.476562 -21.75 15.5625 -21.65625 C 15.65625 -21.570312 15.703125 -21.453125 15.703125 -21.296875 L 15.703125 -18.265625 C 15.703125 -18.128906 15.664062 -18.007812 15.59375 -17.90625 C 15.519531 -17.8125 15.382812 -17.765625 15.1875 -17.765625 C 15.1875 -17.765625 15.179688 -17.765625 15.171875 -17.765625 C 15.160156 -17.765625 15.144531 -17.765625 15.125 -17.765625 C 14.925781 -17.785156 14.578125 -17.8125 14.078125 -17.84375 C 13.585938 -17.875 13.03125 -17.90625 12.40625 -17.9375 C 11.789062 -17.976562 11.160156 -18.015625 10.515625 -18.046875 C 9.878906 -18.078125 9.304688 -18.09375 8.796875 -18.09375 C 7.929688 -18.09375 7.320312 -17.960938 6.96875 -17.703125 C 6.625 -17.441406 6.453125 -17.046875 6.453125 -16.515625 C 6.453125 -16.085938 6.585938 -15.738281 6.859375 -15.46875 C 7.128906 -15.207031 7.664062 -14.859375 8.46875 -14.421875 L 12.296875 -12.34375 C 13.847656 -11.507812 14.90625 -10.59375 15.46875 -9.59375 C 16.039062 -8.601562 16.328125 -7.5 16.328125 -6.28125 Z M 16.328125 -6.28125 "/></g></g><g style="fill:#10404b;fill-opacity:1;"><g transform="translate(168.243243, 38.678189)"><path style="stroke:none" d="M 19.3125 -2.296875 C 19.3125 -1.566406 19.171875 -1.066406 18.890625 -0.796875 C 18.617188 -0.523438 18.164062 -0.335938 17.53125 -0.234375 C 17.226562 -0.191406 16.796875 -0.140625 16.234375 -0.078125 C 15.679688 -0.0234375 15.070312 0.0234375 14.40625 0.078125 C 13.75 0.128906 13.117188 0.171875 12.515625 0.203125 C 11.910156 0.242188 11.40625 0.265625 11 0.265625 C 9.6875 0.265625 8.476562 0.132812 7.375 -0.125 C 6.28125 -0.382812 5.335938 -0.828125 4.546875 -1.453125 C 3.765625 -2.078125 3.160156 -2.945312 2.734375 -4.0625 C 2.304688 -5.175781 2.09375 -6.582031 2.09375 -8.28125 L 2.09375 -21.65625 C 2.09375 -21.8125 2.148438 -21.941406 2.265625 -22.046875 C 2.390625 -22.160156 2.53125 -22.21875 2.6875 -22.21875 L 6.609375 -22.21875 C 6.765625 -22.21875 6.898438 -22.160156 7.015625 -22.046875 C 7.140625 -21.941406 7.203125 -21.8125 7.203125 -21.65625 L 7.203125 -8.28125 C 7.203125 -6.769531 7.453125 -5.675781 7.953125 -5 C 8.453125 -4.332031 9.367188 -4 10.703125 -4 C 11.222656 -4 11.8125 -4.019531 12.46875 -4.0625 C 13.125 -4.101562 13.703125 -4.15625 14.203125 -4.21875 L 14.203125 -21.65625 C 14.203125 -21.8125 14.257812 -21.941406 14.375 -22.046875 C 14.5 -22.160156 14.640625 -22.21875 14.796875 -22.21875 L 18.6875 -22.21875 C 18.851562 -22.21875 19 -22.160156 19.125 -22.046875 C 19.25 -21.941406 19.3125 -21.8125 19.3125 -21.65625 Z M 19.3125 -2.296875 "/></g></g><g style="fill:#10404b;fill-opacity:1;"><g transform="translate(189.647735, 38.678189)"><path style="stroke:none" d="M 19.265625 -0.359375 C 19.265625 -0.117188 19.113281 0 18.8125 0 L 14.234375 0 C 14.078125 0 13.957031 -0.0625 13.875 -0.1875 C 13.789062 -0.320312 13.710938 -0.457031 13.640625 -0.59375 L 9.625 -8.171875 L 9.296875 -8.140625 C 8.984375 -8.140625 8.617188 -8.144531 8.203125 -8.15625 C 7.796875 -8.175781 7.453125 -8.1875 7.171875 -8.1875 L 7.171875 -0.59375 C 7.171875 -0.4375 7.109375 -0.296875 6.984375 -0.171875 C 6.867188 -0.0546875 6.734375 0 6.578125 0 L 2.6875 0 C 2.53125 0 2.390625 -0.0546875 2.265625 -0.171875 C 2.148438 -0.296875 2.09375 -0.4375 2.09375 -0.59375 L 2.09375 -20.671875 C 2.09375 -21.179688 2.203125 -21.523438 2.421875 -21.703125 C 2.640625 -21.890625 2.976562 -22.019531 3.4375 -22.09375 C 4.132812 -22.195312 5.050781 -22.285156 6.1875 -22.359375 C 7.320312 -22.441406 8.429688 -22.484375 9.515625 -22.484375 C 11.203125 -22.484375 12.722656 -22.269531 14.078125 -21.84375 C 15.441406 -21.414062 16.519531 -20.691406 17.3125 -19.671875 C 18.113281 -18.660156 18.515625 -17.265625 18.515625 -15.484375 L 18.515625 -15.109375 C 18.515625 -13.523438 18.144531 -12.238281 17.40625 -11.25 C 16.664062 -10.269531 15.75 -9.5625 14.65625 -9.125 L 19.171875 -0.6875 C 19.234375 -0.570312 19.265625 -0.460938 19.265625 -0.359375 Z M 13.421875 -15.109375 L 13.421875 -15.484375 C 13.421875 -16.398438 13.082031 -17.070312 12.40625 -17.5 C 11.726562 -17.9375 10.765625 -18.15625 9.515625 -18.15625 C 9.367188 -18.15625 9.128906 -18.148438 8.796875 -18.140625 C 8.472656 -18.128906 8.148438 -18.117188 7.828125 -18.109375 C 7.515625 -18.097656 7.296875 -18.082031 7.171875 -18.0625 L 7.171875 -12.328125 C 7.296875 -12.328125 7.503906 -12.320312 7.796875 -12.3125 C 8.097656 -12.300781 8.398438 -12.289062 8.703125 -12.28125 C 9.003906 -12.269531 9.203125 -12.265625 9.296875 -12.265625 C 10.867188 -12.265625 11.945312 -12.484375 12.53125 -12.921875 C 13.125 -13.359375 13.421875 -14.085938 13.421875 -15.109375 Z M 13.421875 -15.109375 "/></g></g><g style="fill:#10404b;fill-opacity:1;"><g transform="translate(209.976023, 38.678189)"><path style="stroke:none" d="M 15.671875 -18.6875 C 15.671875 -18.53125 15.609375 -18.390625 15.484375 -18.265625 C 15.367188 -18.148438 15.234375 -18.09375 15.078125 -18.09375 L 9 -18.09375 C 8.300781 -18.09375 7.804688 -17.945312 7.515625 -17.65625 C 7.234375 -17.363281 7.09375 -16.832031 7.09375 -16.0625 L 7.09375 -13.375 L 14.828125 -13.375 C 14.992188 -13.375 15.132812 -13.3125 15.25 -13.1875 C 15.375 -13.070312 15.4375 -12.929688 15.4375 -12.765625 L 15.4375 -9.921875 C 15.4375 -9.765625 15.375 -9.625 15.25 -9.5 C 15.132812 -9.382812 14.992188 -9.328125 14.828125 -9.328125 L 7.09375 -9.328125 L 7.09375 -0.59375 C 7.09375 -0.4375 7.03125 -0.296875 6.90625 -0.171875 C 6.789062 -0.0546875 6.648438 0 6.484375 0 L 2.609375 0 C 2.441406 0 2.296875 -0.0546875 2.171875 -0.171875 C 2.054688 -0.296875 2 -0.4375 2 -0.59375 L 2 -16.0625 C 2 -17.414062 2.191406 -18.515625 2.578125 -19.359375 C 2.972656 -20.210938 3.515625 -20.863281 4.203125 -21.3125 C 4.890625 -21.757812 5.671875 -22.0625 6.546875 -22.21875 C 7.421875 -22.375 8.335938 -22.453125 9.296875 -22.453125 C 10.910156 -22.453125 12.144531 -22.40625 13 -22.3125 C 13.863281 -22.226562 14.554688 -22.148438 15.078125 -22.078125 C 15.472656 -22.015625 15.671875 -21.8125 15.671875 -21.46875 Z M 15.671875 -18.6875 "/></g></g></g></svg>